<svg xmlns="http://www.w3.org/2000/svg" xmlns:xlink="http://www.w3.org/1999/xlink" width="64" zoomAndPan="magnify" viewBox="0 0 48 48" height="64" preserveAspectRatio="xMidYMid meet" version="1.0"><defs><g/><clipPath id="4ef4c0ea30"><path d="M 0.488281 8.550781 L 47.507812 8.550781 L 47.507812 38.675781 L 0.488281 38.675781 Z M 0.488281 8.550781 " clip-rule="nonzero"/></clipPath></defs><g clip-path="url(#4ef4c0ea30)"><path fill="#000000" d="M 39.570312 9.8125 L 34.875 12.621094 C 36.550781 14.15625 37.855469 15.914062 38.921875 17.820312 C 39.996094 19.730469 40.828125 21.777344 41.5625 23.898438 L 46.277344 21.078125 C 45.542969 18.933594 44.714844 16.867188 43.648438 14.964844 C 42.578125 13.0625 41.269531 11.316406 39.570312 9.8125 Z M 8.644531 8.695312 L 14.296875 12.074219 C 14.546875 12.222656 14.632812 12.554688 14.484375 12.808594 C 14.445312 12.875 14.394531 12.929688 14.335938 12.972656 C 14.152344 13.125 13.976562 13.28125 13.804688 13.441406 C 14.175781 13.855469 14.578125 14.09375 15.101562 14.230469 C 15.777344 14.402344 16.667969 14.421875 17.910156 14.40625 C 18.597656 13.707031 19.136719 13.320312 20.253906 13.011719 C 20.886719 12.839844 21.695312 12.699219 22.539062 12.597656 C 23.476562 12.484375 24.480469 12.417969 25.347656 12.398438 C 26.160156 12.382812 26.847656 12.40625 27.457031 12.464844 C 28.082031 12.523438 28.617188 12.609375 29.125 12.710938 C 29.339844 12.753906 29.574219 12.804688 29.8125 12.855469 C 30.539062 13.015625 31.25 13.167969 32.011719 13.191406 C 32.511719 13.210938 33.058594 13.171875 33.546875 13.121094 C 33.632812 13.113281 33.71875 13.101562 33.804688 13.089844 C 33.757812 13.050781 33.710938 13.011719 33.664062 12.972656 C 33.605469 12.929688 33.554688 12.875 33.515625 12.808594 C 33.367188 12.554688 33.453125 12.222656 33.703125 12.074219 L 39.355469 8.695312 C 39.542969 8.582031 39.789062 8.597656 39.96875 8.746094 C 41.914062 10.394531 43.386719 12.328125 44.574219 14.441406 C 45.746094 16.527344 46.632812 18.785156 47.414062 21.117188 C 47.511719 21.359375 47.421875 21.640625 47.191406 21.777344 L 41.542969 25.15625 L 41.539062 25.15625 C 41.507812 25.175781 41.476562 25.191406 41.4375 25.203125 C 41.160156 25.296875 40.859375 25.144531 40.765625 24.867188 L 40.699219 24.664062 C 40.3125 25.097656 39.902344 25.480469 39.464844 25.828125 C 38.996094 26.195312 38.496094 26.519531 37.960938 26.804688 C 38.390625 27.320312 38.535156 27.945312 38.46875 28.542969 C 38.433594 28.902344 38.3125 29.253906 38.132812 29.570312 C 37.953125 29.886719 37.707031 30.167969 37.417969 30.378906 C 37.015625 30.671875 36.523438 30.84375 35.988281 30.824219 C 36 30.921875 36.007812 31.023438 36.007812 31.125 C 36.007812 31.851562 35.714844 32.511719 35.238281 32.988281 C 34.765625 33.464844 34.109375 33.761719 33.386719 33.761719 C 33.199219 33.761719 33.019531 33.742188 32.839844 33.703125 C 32.832031 34.136719 32.707031 34.558594 32.488281 34.925781 C 32.261719 35.308594 31.933594 35.628906 31.53125 35.839844 C 31.199219 36.015625 30.8125 36.117188 30.398438 36.117188 C 30.183594 36.117188 29.976562 36.089844 29.777344 36.039062 C 29.722656 36.414062 29.582031 36.769531 29.367188 37.078125 C 29.09375 37.46875 28.703125 37.777344 28.234375 37.941406 C 27.992188 38.027344 27.734375 38.074219 27.460938 38.074219 C 26.851562 38.074219 25.703125 37.980469 24.425781 37.703125 C 23.65625 37.535156 22.839844 37.300781 22.0625 36.980469 L 21.558594 37.613281 L 21.5625 37.617188 C 21.117188 38.171875 20.488281 38.5 19.832031 38.570312 C 19.175781 38.644531 18.488281 38.464844 17.933594 38.019531 L 17.933594 38.015625 L 17.933594 38.019531 C 17.4375 37.617188 17.125 37.070312 17.015625 36.484375 C 16.734375 36.632812 16.429688 36.726562 16.117188 36.761719 C 15.46875 36.832031 14.78125 36.660156 14.1875 36.28125 C 14.125 36.238281 14.066406 36.195312 14.011719 36.152344 C 13.480469 35.730469 13.214844 35.128906 13.171875 34.507812 C 13.164062 34.441406 13.164062 34.378906 13.164062 34.316406 C 12.992188 34.367188 12.820312 34.40625 12.644531 34.425781 C 11.964844 34.5 11.257812 34.324219 10.730469 33.921875 C 10.71875 33.914062 10.730469 33.921875 10.679688 33.878906 L 10.679688 33.882812 C 10.105469 33.421875 9.8125 32.78125 9.761719 32.128906 C 9.726562 31.691406 9.800781 31.25 9.96875 30.851562 C 9.398438 30.855469 8.820312 30.671875 8.339844 30.285156 C 7.785156 29.835938 7.460938 29.203125 7.386719 28.542969 C 7.316406 27.882812 7.492188 27.191406 7.9375 26.632812 L 8.113281 26.414062 C 7.988281 26.113281 7.859375 25.859375 7.683594 25.613281 C 7.550781 25.425781 7.382812 25.234375 7.15625 25.015625 C 7.019531 25.195312 6.785156 25.277344 6.5625 25.203125 C 6.523438 25.191406 6.492188 25.175781 6.460938 25.15625 L 6.457031 25.15625 L 0.808594 21.777344 C 0.578125 21.640625 0.488281 21.359375 0.585938 21.117188 C 1.367188 18.785156 2.253906 16.527344 3.425781 14.441406 C 4.613281 12.328125 6.085938 10.394531 8.03125 8.746094 C 8.210938 8.597656 8.457031 8.582031 8.644531 8.695312 Z M 13.039062 14.191406 C 11.828125 15.453125 10.839844 16.851562 10.003906 18.34375 C 9.023438 20.089844 8.242188 21.976562 7.554688 23.9375 C 8.003906 24.328125 8.3125 24.660156 8.546875 24.988281 C 8.667969 25.15625 8.765625 25.316406 8.851562 25.480469 L 9.542969 24.613281 C 9.984375 24.054688 10.613281 23.730469 11.269531 23.660156 C 11.925781 23.585938 12.609375 23.765625 13.164062 24.210938 L 13.167969 24.214844 L 13.167969 24.210938 L 13.171875 24.214844 L 13.195312 24.234375 C 13.621094 24.585938 13.90625 25.054688 14.042969 25.554688 L 14.171875 25.390625 C 15.039062 24.296875 16.074219 24.011719 16.960938 24.226562 C 17.320312 24.3125 17.652344 24.484375 17.933594 24.714844 C 18.214844 24.945312 18.449219 25.234375 18.613281 25.566406 C 18.933594 26.203125 19.007812 26.988281 18.703125 27.773438 C 19.28125 27.761719 19.867188 27.941406 20.351562 28.324219 C 20.378906 28.339844 20.402344 28.359375 20.421875 28.382812 C 20.917969 28.878906 21.230469 29.515625 21.300781 30.164062 C 21.371094 30.796875 21.214844 31.441406 20.785156 31.992188 L 20.722656 32.074219 C 21.246094 32.097656 21.769531 32.28125 22.210938 32.636719 C 22.765625 33.085938 23.089844 33.71875 23.164062 34.378906 C 23.226562 34.96875 23.09375 35.578125 22.75 36.097656 C 23.382812 36.335938 24.03125 36.519531 24.648438 36.652344 C 25.839844 36.910156 26.902344 37 27.460938 37 C 27.617188 37 27.757812 36.972656 27.886719 36.929688 C 28.136719 36.839844 28.347656 36.671875 28.496094 36.460938 C 28.644531 36.246094 28.730469 35.992188 28.730469 35.722656 C 28.730469 35.667969 28.726562 35.617188 28.722656 35.5625 C 27.582031 35.261719 26.453125 34.851562 25.328125 34.328125 C 24.105469 33.761719 22.894531 33.066406 21.6875 32.242188 C 21.445312 32.074219 21.382812 31.742188 21.546875 31.496094 C 21.714844 31.25 22.042969 31.1875 22.289062 31.355469 C 23.441406 32.148438 24.605469 32.8125 25.773438 33.355469 C 26.941406 33.894531 28.113281 34.3125 29.289062 34.601562 C 29.375 34.625 29.453125 34.667969 29.515625 34.722656 C 29.636719 34.824219 29.773438 34.90625 29.921875 34.960938 C 30.070312 35.015625 30.230469 35.042969 30.398438 35.042969 C 30.636719 35.042969 30.851562 34.988281 31.035156 34.890625 C 31.261719 34.769531 31.445312 34.589844 31.574219 34.375 C 31.703125 34.160156 31.773438 33.910156 31.773438 33.652344 C 31.773438 33.503906 31.75 33.351562 31.699219 33.207031 C 29.039062 32.332031 26.089844 30.859375 22.851562 28.785156 C 22.601562 28.625 22.527344 28.292969 22.683594 28.042969 C 22.84375 27.792969 23.171875 27.71875 23.421875 27.875 C 26.675781 29.960938 29.617188 31.421875 32.25 32.257812 C 32.324219 32.28125 32.386719 32.316406 32.441406 32.363281 C 32.570312 32.464844 32.71875 32.546875 32.875 32.601562 C 33.03125 32.65625 33.203125 32.6875 33.386719 32.6875 C 33.816406 32.6875 34.203125 32.511719 34.484375 32.230469 C 34.765625 31.945312 34.941406 31.554688 34.941406 31.125 C 34.941406 30.980469 34.921875 30.84375 34.886719 30.714844 C 34.867188 30.636719 34.839844 30.566406 34.8125 30.5 C 34.058594 30.226562 32.921875 29.691406 31.402344 28.894531 C 29.746094 28.023438 27.644531 26.847656 25.09375 25.359375 C 24.839844 25.210938 24.753906 24.882812 24.902344 24.628906 C 25.046875 24.371094 25.375 24.285156 25.628906 24.433594 C 28.1875 25.925781 30.277344 27.097656 31.894531 27.949219 C 33.492188 28.785156 34.636719 29.320312 35.332031 29.546875 C 35.363281 29.554688 35.394531 29.566406 35.425781 29.582031 C 35.953125 29.847656 36.4375 29.769531 36.792969 29.507812 C 36.964844 29.382812 37.105469 29.222656 37.210938 29.039062 C 37.320312 28.851562 37.390625 28.644531 37.410156 28.429688 C 37.460938 27.984375 37.289062 27.511719 36.800781 27.1875 L 36.796875 27.183594 L 36.792969 27.183594 L 36.792969 27.179688 L 36.78125 27.175781 C 36.777344 27.167969 36.769531 27.164062 36.761719 27.160156 L 36.761719 27.15625 L 36.75 27.148438 L 36.746094 27.144531 L 36.691406 27.097656 C 36.675781 27.085938 36.664062 27.078125 36.652344 27.066406 C 35.773438 26.320312 34.894531 25.574219 33.96875 24.828125 C 33.011719 24.058594 32.003906 23.289062 30.910156 22.53125 C 28.753906 21.035156 26.203125 19.542969 23.644531 18.050781 C 23.390625 18.09375 23.132812 18.148438 22.867188 18.238281 C 22.546875 18.347656 22.210938 18.519531 21.832031 18.808594 C 21.429688 19.117188 20.953125 19.582031 20.460938 20.0625 C 19.964844 20.546875 19.453125 21.046875 18.949219 21.453125 C 18.410156 21.882812 17.878906 22.203125 17.359375 22.378906 C 16.792969 22.574219 16.242188 22.597656 15.714844 22.414062 L 15.710938 22.414062 C 15.140625 22.214844 14.609375 21.761719 14.328125 21.128906 C 14.09375 20.605469 14.03125 19.957031 14.261719 19.230469 C 14.652344 17.996094 15.910156 16.550781 16.902344 15.480469 C 16.070312 15.46875 15.40625 15.414062 14.839844 15.269531 C 14.109375 15.082031 13.546875 14.753906 13.039062 14.191406 Z M 13.125 12.621094 L 8.429688 9.8125 C 6.730469 11.316406 5.421875 13.0625 4.351562 14.964844 C 3.285156 16.867188 2.457031 18.933594 1.722656 21.078125 L 6.351562 23.84375 C 6.371094 23.796875 6.398438 23.746094 6.433594 23.703125 C 6.464844 23.664062 6.503906 23.628906 6.542969 23.597656 C 7.25 21.585938 8.054688 19.640625 9.078125 17.820312 C 10.144531 15.914062 11.449219 14.15625 13.125 12.621094 Z M 11.136719 29.210938 C 11.160156 29.179688 11.183594 29.15625 11.210938 29.132812 L 12.691406 27.261719 C 12.707031 27.234375 12.722656 27.210938 12.742188 27.1875 C 13 26.863281 13.101562 26.460938 13.058594 26.070312 C 13.019531 25.691406 12.835938 25.328125 12.523438 25.066406 L 12.496094 25.042969 L 12.5 25.042969 L 12.496094 25.042969 C 12.175781 24.785156 11.773438 24.679688 11.386719 24.722656 C 11 24.765625 10.632812 24.957031 10.371094 25.285156 L 10.367188 25.289062 L 9.160156 26.804688 C 9.144531 26.828125 9.128906 26.851562 9.105469 26.871094 L 8.765625 27.300781 C 8.507812 27.628906 8.402344 28.03125 8.445312 28.425781 C 8.488281 28.816406 8.679688 29.1875 9.003906 29.449219 C 9.328125 29.710938 9.730469 29.8125 10.117188 29.769531 C 10.503906 29.726562 10.875 29.535156 11.136719 29.210938 Z M 18.515625 33.160156 C 18.53125 33.117188 18.554688 33.078125 18.585938 33.042969 C 18.644531 32.96875 18.703125 32.902344 18.765625 32.835938 L 19.945312 31.332031 C 20.191406 31.015625 20.28125 30.644531 20.242188 30.28125 C 20.199219 29.882812 20 29.484375 19.6875 29.160156 C 19.367188 28.914062 18.972656 28.8125 18.59375 28.855469 C 18.242188 28.894531 17.910156 29.054688 17.660156 29.324219 L 14.65625 33.117188 C 14.636719 33.167969 14.609375 33.214844 14.578125 33.261719 C 14.546875 33.300781 14.519531 33.335938 14.496094 33.375 C 14.304688 33.675781 14.207031 34.058594 14.234375 34.425781 C 14.257812 34.769531 14.394531 35.089844 14.671875 35.3125 C 14.703125 35.335938 14.734375 35.359375 14.765625 35.378906 C 15.148438 35.625 15.589844 35.738281 16 35.695312 C 16.359375 35.652344 16.695312 35.488281 16.9375 35.175781 L 17.304688 34.707031 C 17.371094 34.589844 17.445312 34.476562 17.53125 34.367188 C 17.570312 34.320312 17.613281 34.285156 17.660156 34.253906 Z M 18.1875 35.3125 C 18.058594 35.578125 18.011719 35.871094 18.042969 36.160156 C 18.085938 36.546875 18.273438 36.921875 18.601562 37.183594 L 18.597656 37.183594 C 18.921875 37.445312 19.324219 37.550781 19.714844 37.503906 C 20.101562 37.460938 20.472656 37.273438 20.730469 36.945312 L 21.457031 36.035156 C 21.476562 36.003906 21.5 35.972656 21.523438 35.949219 L 21.785156 35.621094 C 22.042969 35.296875 22.148438 34.890625 22.105469 34.496094 C 22.0625 34.109375 21.871094 33.734375 21.550781 33.472656 C 21.226562 33.210938 20.820312 33.109375 20.433594 33.152344 C 20.117188 33.1875 19.808594 33.320312 19.566406 33.550781 Z M 16.722656 28.789062 C 16.730469 28.777344 16.738281 28.761719 16.75 28.75 L 16.757812 28.738281 C 16.769531 28.722656 16.78125 28.710938 16.792969 28.699219 L 17.371094 27.96875 C 17.90625 27.292969 17.929688 26.578125 17.664062 26.050781 C 17.566406 25.851562 17.425781 25.679688 17.265625 25.546875 C 17.101562 25.410156 16.914062 25.316406 16.714844 25.265625 C 16.203125 25.140625 15.574219 25.339844 15.007812 26.054688 L 11.148438 30.929688 L 11.125 30.960938 C 10.902344 31.261719 10.792969 31.65625 10.824219 32.042969 C 10.855469 32.417969 11.019531 32.785156 11.339844 33.042969 C 11.363281 33.0625 11.328125 33.035156 11.375 33.066406 C 11.683594 33.300781 12.109375 33.40625 12.527344 33.359375 C 12.910156 33.316406 13.269531 33.148438 13.515625 32.839844 Z M 34.808594 14.035156 C 34.515625 14.078125 34.125 14.136719 33.65625 14.1875 C 33.128906 14.242188 32.539062 14.28125 31.980469 14.261719 C 31.109375 14.234375 30.359375 14.070312 29.589844 13.90625 C 29.378906 13.859375 29.164062 13.8125 28.917969 13.765625 C 28.425781 13.664062 27.921875 13.582031 27.363281 13.53125 C 26.789062 13.476562 26.140625 13.453125 25.367188 13.46875 C 24.550781 13.488281 23.589844 13.554688 22.664062 13.664062 C 21.855469 13.761719 21.097656 13.890625 20.53125 14.046875 C 19.410156 14.355469 18.988281 14.804688 18.082031 15.777344 L 18.042969 15.816406 C 17.089844 16.839844 15.640625 18.394531 15.273438 19.550781 C 15.132812 20.003906 15.164062 20.390625 15.300781 20.695312 C 15.457031 21.042969 15.746094 21.292969 16.0625 21.402344 C 16.351562 21.503906 16.671875 21.484375 17.019531 21.363281 C 17.414062 21.230469 17.839844 20.96875 18.289062 20.613281 C 18.757812 20.238281 19.246094 19.757812 19.71875 19.292969 C 20.226562 18.796875 20.722656 18.316406 21.191406 17.957031 C 21.679688 17.582031 22.113281 17.363281 22.523438 17.222656 C 22.921875 17.085938 23.289062 17.023438 23.65625 16.960938 C 23.773438 16.941406 23.898438 16.960938 24.011719 17.023438 L 24.03125 17.035156 C 26.652344 18.566406 29.273438 20.09375 31.511719 21.648438 C 32.640625 22.429688 33.664062 23.210938 34.632812 23.992188 C 35.480469 24.671875 36.292969 25.359375 37.097656 26.042969 C 37.722656 25.742188 38.289062 25.394531 38.808594 24.984375 C 39.34375 24.5625 39.835938 24.070312 40.289062 23.5 C 39.640625 21.699219 38.90625 19.960938 37.996094 18.34375 C 37.125 16.785156 36.085938 15.335938 34.808594 14.035156 Z M 34.808594 14.035156 " fill-opacity="1" fill-rule="nonzero"/></g><g fill="#000000" fill-opacity="1"><g transform="translate(12.692218, 13.959188)"><g><path d="M 0.46875 0 L 0.46875 -1.1875 L 0.453125 -1.1875 L 0.09375 -0.9375 L 0.09375 -1.109375 L 0.453125 -1.375 L 0.625 -1.375 L 0.625 0 Z M 0.46875 0 "/></g></g></g></svg>